<?xml version="1.0" encoding="UTF-8" standalone="no"?>
<!-- Created with Inkscape (http://www.inkscape.org/) -->

<svg
   width="14.116176mm"
   height="9.6354084mm"
   viewBox="0 0 14.116175 9.6354076"
   version="1.1"
   id="svg5"
   inkscape:version="1.1.2 (b8e25be833, 2022-02-05)"
   sodipodi:docname="basket.svg"
   xmlns:inkscape="http://www.inkscape.org/namespaces/inkscape"
   xmlns:sodipodi="http://sodipodi.sourceforge.net/DTD/sodipodi-0.dtd"
   xmlns="http://www.w3.org/2000/svg"
   xmlns:svg="http://www.w3.org/2000/svg">
  <sodipodi:namedview
     id="namedview7"
     pagecolor="#ffffff"
     bordercolor="#666666"
     borderopacity="1.0"
     inkscape:pageshadow="2"
     inkscape:pageopacity="0.0"
     inkscape:pagecheckerboard="0"
     inkscape:document-units="mm"
     showgrid="false"
     inkscape:zoom="5.6568542"
     inkscape:cx="36.150835"
     inkscape:cy="4.4194174"
     inkscape:window-width="1920"
     inkscape:window-height="1017"
     inkscape:window-x="-8"
     inkscape:window-y="-8"
     inkscape:window-maximized="1"
     inkscape:current-layer="layer1" />
  <defs
     id="defs2">
    <inkscape:path-effect
       effect="fillet_chamfer"
       id="path-effect4939"
       is_visible="true"
       lpeversion="1"
       satellites_param="F,0,0,1,0,2.032932,0,1 @ F,0,0,1,0,2.2978618,0,1 @ F,0,0,1,0,0,0,1 @ F,0,0,1,0,0,0,1 @ F,0,0,1,0,2.7398918,0,1 @ F,0,0,1,0,0,0,1 @ F,0,0,1,0,2.0407221,0,1 @ F,0,0,1,0,2.1182931,0,1 @ F,0,0,1,0,2.7497043,0,1 @ F,0,0,1,0,2.1213204,0,1 @ F,0,0,1,0,1.9388699,0,1 @ F,0,0,1,0,2.1277174,0,1 @ F,0,0,1,0,0,0,1 @ F,0,0,1,0,0,0,1 @ F,0,0,1,0,1.8561553,0,1 @ F,0,0,1,0,0,0,1 @ F,0,0,1,0,0,0,1"
       unit="px"
       method="auto"
       mode="F"
       radius="0"
       chamfer_steps="1"
       flexible="false"
       use_knot_distance="true"
       apply_no_radius="true"
       apply_with_radius="true"
       only_selected="false"
       hide_knots="false" />
    <inkscape:path-effect
       effect="fillet_chamfer"
       id="path-effect411"
       is_visible="true"
       lpeversion="1"
       satellites_param="F,0,0,1,0,0,0,1 @ F,0,0,1,0,16.083033,0,1 @ F,0,0,1,0,10.722022,0,1 @ F,0,0,1,0,0,0,1"
       unit="px"
       method="auto"
       mode="F"
       radius="0"
       chamfer_steps="1"
       flexible="false"
       use_knot_distance="true"
       apply_no_radius="true"
       apply_with_radius="true"
       only_selected="false"
       hide_knots="false" />
  </defs>
  <g
     inkscape:label="Layer 1"
     inkscape:groupmode="layer"
     id="layer1"
     transform="translate(47.54141,-47.472531)">
    <path
       id="path4068"
       style="fill:#14b88c;fill-opacity:1;stroke-width:0.799998"
       d="m 0.02005557,2.0328331 0.0061033,0.6186357 A 2.3214159,2.3214159 44.726902 0 0 2.3466898,4.949983 l 3.5654196,0.00119 v -0.00195 l 7.8108896,0.00144 a 2.7291419,2.7291419 17.950077 0 1 3.058251,0.9907407 l 6.004581,18.6860309 a 2.7909116,2.7909116 36.011305 0 0 2.665039,1.937067 l 19.174986,-0.05457 a 2.9143512,2.9143512 143.82544 0 0 2.766328,-2.02276 L 52.510353,8.5592686 A 2.004606,2.004606 53.906977 0 0 50.601858,5.9413991 H 50.275617 A 2.9100265,2.9100265 143.90909 0 0 47.505178,7.9609647 L 43.726101,19.718586 a 2.6675426,2.6675426 143.82925 0 1 -2.532151,1.851271 l -12.050616,0.03359 A 2.9097927,2.9097927 36.015564 0 1 26.364867,19.583617 L 21.982422,5.9414062 h -0.002 L 20.640009,1.7691487 A 2.5459165,2.5459165 36.094726 0 0 18.216111,0.00195313 H 14.875 L 8.7910156,0 H 2.032932 A 2.0129744,2.0129744 134.71737 0 0 0.02005557,2.0328331 Z"
       transform="matrix(0.26458333,0,0,0.26458333,-47.54141,47.472531)"
       inkscape:path-effect="#path-effect4939"
       inkscape:original-d="m 0,0 0.04882812,4.9492188 5.86328128,0.00195 v -0.00195 l 10.5507816,0.00195 0.318359,0.9902343 6.628906,20.6289059 23.333985,-0.06641 6.607421,-20.5624999 H 48.154297 L 43.132812,21.564453 27.015625,21.609375 21.982422,5.9414062 h -0.002 L 20.072266,0.00195313 H 14.875 L 8.7910156,0 Z" />
    <g
       id="g3955"
       transform="matrix(0.8,0,0,0.8,-7.9619769,10.458047)"
       style="fill:#14b88c;fill-opacity:1">
      <circle
         style="fill:#14b88c;fill-opacity:1;stroke-width:0.264583"
         id="path3869"
         cx="-39.922787"
         cy="57.026131"
         r="1.2862346" />
      <circle
         style="fill:#14b88c;fill-opacity:1;stroke-width:0.264583"
         id="circle3871"
         cx="-35.830223"
         cy="57.026131"
         r="1.2862346" />
    </g>
  </g>
</svg>
