<?xml version="1.0" encoding="UTF-8" standalone="no"?>
<!-- Created with Inkscape (http://www.inkscape.org/) -->

<svg
   width="12.029516mm"
   height="11.394541mm"
   viewBox="0 0 12.029516 11.39454"
   version="1.1"
   id="svg5"
   inkscape:version="1.1.2 (b8e25be833, 2022-02-05)"
   sodipodi:docname="home.svg"
   xmlns:inkscape="http://www.inkscape.org/namespaces/inkscape"
   xmlns:sodipodi="http://sodipodi.sourceforge.net/DTD/sodipodi-0.dtd"
   xmlns="http://www.w3.org/2000/svg"
   xmlns:svg="http://www.w3.org/2000/svg">
  <sodipodi:namedview
     id="namedview7"
     pagecolor="#ffffff"
     bordercolor="#666666"
     borderopacity="1.0"
     inkscape:pageshadow="2"
     inkscape:pageopacity="0.0"
     inkscape:pagecheckerboard="0"
     inkscape:document-units="mm"
     showgrid="false"
     inkscape:zoom="5.6568542"
     inkscape:cx="16.882174"
     inkscape:cy="35.885669"
     inkscape:window-width="1920"
     inkscape:window-height="1017"
     inkscape:window-x="-8"
     inkscape:window-y="-8"
     inkscape:window-maximized="1"
     inkscape:current-layer="layer1" />
  <defs
     id="defs2">
    <inkscape:path-effect
       effect="fillet_chamfer"
       id="path-effect5304"
       is_visible="true"
       lpeversion="1"
       satellites_param="F,0,0,1,0,0.78343951,0,1 @ F,0,0,1,0,0,0,1 @ F,0,0,1,0,0.80456127,0,1 @ F,0,0,1,0,0,0,1 @ F,0,0,1,0,0,0,1 @ F,0,0,1,0,0,0,1 @ F,0,0,1,0,0.60653953,0,1 @ F,0,0,1,0,0,0,1 @ F,0,0,1,0,0,0,1 @ F,0,0,1,0,0.77174076,0,1 @ F,0,0,1,0,0.77174076,0,1 @ F,0,0,1,0,0,0,1 @ F,0,0,1,0,0.33694103,0,1 @ F,0,0,1,0,0,0,1 @ F,0,0,1,0,0,0,1 @ F,0,0,1,0,0.29352792,0,1 @ F,0,0,1,0,0,0,1 @ F,0,0,1,0,0,0,1 @ F,0,0,1,0,0.74835164,0,1"
       unit="px"
       method="auto"
       mode="F"
       radius="0"
       chamfer_steps="1"
       flexible="false"
       use_knot_distance="true"
       apply_no_radius="true"
       apply_with_radius="true"
       only_selected="false"
       hide_knots="false" />
    <inkscape:path-effect
       effect="fillet_chamfer"
       id="path-effect4941"
       is_visible="true"
       lpeversion="1"
       satellites_param="F,0,0,1,0,3.8338262,0,1 @ F,0,0,1,0,2.9530048,0,1 @ F,0,0,1,0,2.4848934,0,1 @ F,0,0,1,0,2.0720258,0,1 @ F,0,0,1,0,2.6276806,0,1 @ F,0,0,1,0,3.4187797,0,1"
       unit="px"
       method="auto"
       mode="F"
       radius="0"
       chamfer_steps="1"
       flexible="false"
       use_knot_distance="true"
       apply_no_radius="true"
       apply_with_radius="true"
       only_selected="false"
       hide_knots="false" />
    <inkscape:path-effect
       effect="fillet_chamfer"
       id="path-effect411"
       is_visible="true"
       lpeversion="1"
       satellites_param="F,0,0,1,0,0,0,1 @ F,0,0,1,0,16.083033,0,1 @ F,0,0,1,0,10.722022,0,1 @ F,0,0,1,0,0,0,1"
       unit="px"
       method="auto"
       mode="F"
       radius="0"
       chamfer_steps="1"
       flexible="false"
       use_knot_distance="true"
       apply_no_radius="true"
       apply_with_radius="true"
       only_selected="false"
       hide_knots="false" />
  </defs>
  <g
     inkscape:label="Layer 1"
     inkscape:groupmode="layer"
     id="layer1"
     transform="translate(38.201094,-42.085527)">
    <path
       id="path4068"
       style="fill:#14b88c;fill-opacity:1;stroke-width:1.42361"
       d="M 61.941913,-14.717057 42.957902,2.2453432 a 2.9572078,2.9572078 93.259644 0 0 -0.23763,4.1723869 l 0.499761,0.5609268 A 2.4811562,2.4811562 3.2572723 0 0 46.725885,7.17818 L 63.255794,-7.5939186 a 2.3184737,2.3184737 0.00139506 0 1 3.089906,7.53e-5 L 82.767342,7.0829385 a 2.6236009,2.6236009 176.74412 0 0 3.70722,-0.2108927 l 0.09493,-0.1065483 A 3.4237838,3.4237838 86.741512 0 0 86.294472,1.9349008 L 67.659546,-14.716942 a 4.2905744,4.2905744 0.00115615 0 0 -5.717633,-1.15e-4 z"
       transform="matrix(0.26458333,0,0,0.26458333,-49.305932,46.268105)"
       inkscape:path-effect="#path-effect4941"
       inkscape:original-d="M 64.800781,-17.271484 40.755859,4.2128906 44.873047,8.8339844 64.800781,-8.9746094 84.726562,8.8339844 88.84375,4.2128906 Z" />
    <path
       id="path4168"
       style="fill:#14b88c;fill-opacity:1;stroke-width:1.34485"
       d="m 14.929688,26.111328 a 2.9718114,2.9718114 0 0 0 -2.972657,2.960938 l -0.01563,4.505859 -0.0293,7.949219 a 3.009608,3.009608 0 0 0 2.753907,3.001953 h 2.996093 16.345703 a 2.3184284,2.3184284 0 0 0 2.121094,-2.294922 l 0.01758,-5.035156 h -0.002 l 0.03125,-8.171875 a 2.9055327,2.9055327 0 0 0 -2.90625,-2.916016 h -0.353515 a 2.9274651,2.9274651 0 0 0 -2.927735,2.916016 l -0.01563,4.550781 -0.01367,3.537109 a 1.2880908,1.2880908 0 0 1 -1.277343,1.283204 v 0.002 l -9.460938,0.07031 a 1.0979791,1.0979791 0 0 1 -1.107422,-1.101562 v -0.169922 h -0.002 l 0.0332,-8.259766 a 2.8175041,2.8175041 0 0 0 -2.818359,-2.828125 z"
       transform="matrix(0.26458333,0,0,0.26458333,-38.522611,41.698358)" />
  </g>
</svg>
